<svg xmlns="http://www.w3.org/2000/svg" xmlns:xlink="http://www.w3.org/1999/xlink" version="1.1" x="0px" 
y="0px" viewBox="0 0 32 40" style="enable-background:new 0 0 32 32;" xml:space="preserve"><style type="text/css">
	.st0{fill:#000000;}
</style><path d="M15.09233,15.3607c0.01953,0,0.03906-0.00098,0.05566-0.00195c0.45312-0.02539,0.8291-0.38574,0.89649-0.8623  c0.01758-0.13086,0.00977-0.25098-0.00879-0.35645c0.00391-0.03906,0.00391-0.08008,0.00098-0.12012  c-0.03516-0.48145-0.34082-0.92285-0.78906-1.13086c-0.32031-0.14355-0.66406-0.10742-0.92871,0.10547  c-0.11914,0.09961-0.24609,0.31348-0.28613,0.46387c-0.18359,0.69141-0.01758,1.31934,0.44629,1.68066  C14.70951,15.31774,14.93412,15.3607,15.09233,15.3607z"/><path d="M20.4644,14.93883c0.12012,0.05176,0.24707,0.07715,0.37305,0.07715c0.31055,0,0.61426-0.15332,0.7998-0.42676  c0.11426-0.16797,0.17188-0.36816,0.17383-0.56934c0.01855-0.05762,0.03027-0.11719,0.03418-0.17969  c0.01758-0.29004,0.00977-0.71777-0.26074-1.08008c-0.22852-0.30469-0.59863-0.46973-0.97656-0.41113  c-0.35352,0.04688-0.6416,0.27246-0.76855,0.59668c-0.0791,0.19531-0.0791,0.37207-0.0791,0.47754  c0,0.24121,0,0.57227,0.13477,0.90137C20.0142,14.61852,20.21244,14.83141,20.4644,14.93883z"/><path d="M22.41948,17.59801c-0.00098-0.16992-0.05859-0.33398-0.16504-0.4668c-0.52734-0.65625-1.36328-1.10645-2.41699-1.30078  c-2.26758-0.4209-4.17676,0.05566-5.37598,1.34473c-0.11719,0.125-0.1875,0.28711-0.19922,0.45898  c-0.05664,0.80957,0.33105,1.62109,0.98828,2.06641c0.87012,0.58984,1.90625,0.83594,2.90625,0.83594  c0.97559,0,1.91699-0.23535,2.63379-0.61719C21.82963,19.36461,22.42338,18.51891,22.41948,17.59801z M20.08451,18.59508  c-1.02734,0.54883-2.77734,0.6875-3.99219-0.13672c-0.15039-0.10156-0.26367-0.28223-0.31152-0.47559  c1.07324-0.93359,2.62793-0.8916,3.7832-0.67773c0.40332,0.07422,0.9248,0.22852,1.30664,0.54785  C20.72416,18.21813,20.29155,18.48473,20.08451,18.59508z"/><path d="M24.97709,18.44664c0.4209-0.93555,0.59277-2.05762,0.54199-3.53223c-0.02734-0.76758-0.10742-1.76855-0.49219-2.69531  c-0.51367-1.24219-1.56152-2.26465-2.87695-2.80566c-1.21094-0.49609-2.45898-0.5625-3.53125-0.54395  c-1.18945,0.01074-2.57715,0.11426-3.84863,0.80371c-1.77551,0.96185-3.01947,2.98785-3.27087,5.21552  c-2.40411,0.0351-4.2334,1.80597-4.94397,3.58917c-0.83789,2.10254-0.60254,4.5791,0.62988,6.62598  c1.10156,1.82812,3.46973,4.12207,8.50098,4.66504c0.5791,0.06152,1.28027,0.12012,2.04688,0.12012  c1.02539,0,2.16699-0.10449,3.28516-0.44434c2.01855-0.61328,3.64551-1.99609,4.46484-3.79297  c0.87421-1.92004,0.42737-4.71973-0.93781-6.46143C24.70127,18.95519,24.85557,18.71715,24.97709,18.44664z M24.11772,25.02965  c-0.64062,1.40527-1.92969,2.49121-3.53516,2.97949c-1.30664,0.39746-2.76758,0.48145-4.73633,0.26758  c-4.41895-0.47656-6.4502-2.40918-7.37598-3.94629c-0.97754-1.62305-1.17773-3.65332-0.52246-5.29785  c0.52203-1.30865,1.84613-2.61383,3.54657-2.65009c0.21417,2.3457,1.52667,4.48456,3.40851,5.43719  c0.1084,0.05469,0.22461,0.08105,0.33789,0.08105c0.27441,0,0.53809-0.15039,0.66992-0.41113  c0.1875-0.36914,0.03906-0.82129-0.33008-1.00781c-1.52832-0.77441-2.61035-2.70801-2.63086-4.7041  c-0.02148-1.99805,1.02051-3.96582,2.53516-4.78613c0.98242-0.53223,2.14258-0.61328,3.14746-0.62207  c0.92578-0.0127,1.98535,0.03711,2.94824,0.43164c0.94727,0.38965,1.69824,1.11523,2.06055,1.99121  c0.22852,0.55078,0.34473,1.22168,0.37793,2.1748c0.04395,1.23633-0.08691,2.14648-0.41016,2.86426  c-0.46191,1.03027-1.38965,1.75586-2.20703,2.39551c-0.32617,0.25586-0.38379,0.72656-0.12891,1.05273  s0.72559,0.38477,1.05273,0.12891c0.3894-0.30481,0.81683-0.65265,1.22937-1.04553  C24.43303,21.68431,24.71775,23.71306,24.11772,25.02965z"/><path d="M9.30619,18.95543c-0.36523-0.19922-0.82031-0.06445-1.01758,0.29883c-0.19824,0.36426-0.06445,0.81934,0.29883,1.01758  c0.5332,0.29102,2.4541,2.39355,2.92188,4.20703c0.08789,0.33789,0.39258,0.5625,0.72559,0.5625  c0.0625,0,0.12598-0.00781,0.18848-0.02344c0.40137-0.10352,0.64258-0.5127,0.53906-0.91406  C12.40483,21.94664,10.25737,19.47399,9.30619,18.95543z"/><path d="M20.64018,2.67027c-1.02539-0.61816-2.30664-0.73438-3.4248-0.31152c-0.34863,0.13184-0.74707,0.48926-0.80078,0.96094  c-0.03906,0.34277,0.11035,0.66309,0.39941,0.85547c0.3457,0.22949,0.81055,0.13574,1.04004-0.20801  c0.05762-0.08594,0.09473-0.18066,0.11328-0.27637c0.3291-0.08691,0.68066-0.10352,1.02637-0.0459  c-0.19531,0.08301-0.38965,0.18555-0.57617,0.31738c-0.56348,0.40039-0.91211,1.00293-0.93164,1.60352  c-0.01855,0.40234,0.13965,0.65625,0.2832,0.80664c0.19238,0.19629,0.41895,0.25781,0.52832,0.28809l0.75,0.20215  c0.06543,0.01758,0.13086,0.02539,0.19531,0.02539c0.33105,0,0.63379-0.2207,0.72461-0.55469  c0.10742-0.40039-0.12988-0.81152-0.5293-0.91992l-0.3125-0.08398c0.04492-0.05176,0.09863-0.10059,0.15918-0.14258  c0.24707-0.1748,0.59473-0.27637,0.9043-0.3584c0.9043-0.24414,1.15039-0.83887,1.07812-1.31934  C21.21342,3.17223,21.00346,2.89098,20.64018,2.67027z"/><path d="M20.11186,6.96129c-0.25684,0.3252-0.20117,0.79688,0.125,1.05273l0.18457,0.14551  c0.13672,0.1084,0.30078,0.16113,0.46289,0.16113c0.22266,0,0.44238-0.09766,0.58984-0.28613  c0.25684-0.32519,0.20117-0.79687-0.125-1.05273l-0.18457-0.14551C20.8394,6.57848,20.36674,6.63512,20.11186,6.96129z"/><text x="0" y="47" fill="#000000" font-size="5px" font-weight="bold" font-family="'Helvetica Neue', Helvetica, Arial-Unicode, Arial, Sans-serif">Created by Valerie Lamm</text><text x="0" y="52" fill="#000000" font-size="5px" font-weight="bold" font-family="'Helvetica Neue', Helvetica, Arial-Unicode, Arial, Sans-serif">from the Noun Project</text></svg>